<svg xmlns="http://www.w3.org/2000/svg" xmlns:xlink="http://www.w3.org/1999/xlink" width="144" height="144" viewBox="0 0 38.1 38.1"><defs><linearGradient id="a"><stop offset="0"/><stop offset="1" stop-opacity="0"/></linearGradient><linearGradient xlink:href="#a" id="b" gradientUnits="userSpaceOnUse" gradientTransform="matrix(.09045 0 0 .09045 118.27 273.1)" x1="-850.85" y1="-2573.88" x2="489.05" y2="-1233.98"/></defs><g transform="translate(-37.17 -207.02)"><ellipse cx="56.5" cy="225.51" rx="14.48" ry="14.73" fill="#ffc107"/><path d="M67.4 32.94l-13.97.01c-1.94 0-3.5 1.15-3.5 2.58 0 .71.38 1.36 1 1.82.17.22.37.43.61.6.16.22.36.42.6.6.16.22.36.42.6.6.16.22.36.42.59.59.16.22.36.42.59.59.16.22.36.41.59.59l.12.15.34 11.74-2.13 2.49a2.13 2.13 0 00-.43-.39 2.13 2.13 0 00-.59-.58 2.12 2.12 0 00-.59-.59 2.13 2.13 0 00-.59-.59 2.12 2.12 0 00-.6-.59 2.13 2.13 0 00-.6-.6 2.13 2.13 0 00-.6-.6 2.12 2.12 0 00-.6-.6 2.16 2.16 0 00-1.8-.96H33.88c-1.2 0-2.15.94-2.15 2.1 0 .73.37 1.37.94 1.74.15.24.36.45.6.6.12.2.28.36.45.5V83.43c0 2.22.94 4.2 2.42 5.49.19.21.39.41.6.6.19.21.39.42.6.6.19.21.38.41.6.6.18.2.38.4.59.6.18.2.38.4.6.58.18.2.37.4.58.59.18.2.38.4.58.58.19.2.38.4.59.58.18.2.37.4.58.58.18.2.37.4.57.57.18.2.37.4.57.58.18.2.37.39.57.57.18.2.37.39.57.56.18.2.36.39.56.56.18.2.37.39.57.56.17.2.36.39.55.56.18.2.36.38.56.56.17.2.36.38.55.55.17.19.35.37.55.54.17.2.35.38.54.55.17.19.36.37.55.54.17.19.35.37.54.54.16.19.34.37.53.54.17.18.35.36.54.53.16.19.34.36.53.53.16.18.34.36.52.53.17.18.35.36.53.52.16.18.34.36.52.52.16.18.34.35.52.52.16.18.33.35.51.51.17.18.34.35.52.51.16.18.33.35.5.51.17.18.34.35.51.5.16.18.33.35.5.51.16.18.33.34.5.5l.5.5c.16.17.32.33.5.49.15.17.32.34.49.49.15.17.32.33.49.49.15.17.31.33.48.48.16.17.31.33.48.48.16.17.31.33.48.48.15.17.31.32.48.47.15.17.3.33.47.48.15.16.3.32.47.47.15.16.3.31.47.46.14.16.3.32.46.47l.46.45c.15.16.3.32.46.46.14.16.3.31.45.45l.46.46.44.44c.14.16.3.3.45.45l.44.44.44.44c.14.15.28.3.44.43.13.15.28.3.43.44l.43.43c.14.15.28.29.43.42.13.15.28.3.42.43l.42.42.42.42.42.41c.13.15.27.28.41.41l.41.41c.13.14.26.28.4.4.13.15.27.28.41.41l.4.4.4.4c.12.13.25.26.4.39.12.14.25.27.38.39l.4.39c.12.13.24.26.38.38l.38.38.25.25a54.73 55.7 0 00.25.02 54.73 55.7 0 0052.97-42l-.38-.38-.45-.45-.45-.45c-.15-.16-.3-.31-.47-.46-.14-.16-.3-.31-.46-.46l-.46-.46c-.15-.16-.3-.32-.47-.47l-.46-.47-.48-.47c-.15-.17-.31-.32-.48-.48l-.48-.48-.48-.48a13.4 13.4 0 00-.48-.48c-.16-.17-.32-.33-.5-.49-.15-.17-.31-.33-.49-.5l-.5-.49a13.3 13.3 0 00-.49-.49l-.5-.5c-.16-.17-.32-.34-.5-.5l-.5-.5c-.17-.18-.33-.35-.51-.51-.17-.18-.34-.35-.52-.51l-.5-.52a13.3 13.3 0 00-.53-.51c-.16-.18-.34-.35-.52-.53l-.52-.52-.53-.52-.53-.53-.53-.53-.54-.54a13 13 0 00-.54-.54l-.54-.54-.55-.54a12.9 12.9 0 00-.55-.55c-.17-.19-.36-.37-.55-.55-.17-.19-.36-.37-.55-.56l-.56-.55c-.18-.2-.37-.38-.56-.56-.18-.2-.37-.38-.57-.56-.17-.2-.36-.38-.56-.57-.18-.2-.37-.38-.57-.57-.18-.2-.38-.38-.58-.57-.18-.2-.37-.39-.57-.58-.18-.2-.38-.38-.58-.57-.18-.2-.38-.4-.58-.58-.19-.2-.38-.4-.59-.59-.18-.2-.38-.4-.58-.58l-.6-.6c-.18-.2-.38-.4-.59-.59l-.6-.6-.6-.6-.66-.65a21.89 12.38 0 00-11.84-5.78 1.45 1.45 0 00-.26-.17 1.05 1.05 0 00-.52-.51c-.09-.23-.28-.4-.52-.52-.09-.23-.28-.4-.53-.53-.08-.22-.28-.4-.52-.52-.1-.23-.29-.4-.54-.53-.08-.23-.28-.4-.53-.53-.09-.24-.29-.4-.54-.54-.08-.23-.28-.4-.54-.54-.08-.23-.28-.4-.54-.54-.09-.23-.29-.41-.55-.54-.08-.24-.29-.42-.54-.55-.1-.24-.3-.42-.56-.55-.09-.24-.29-.42-.55-.55v-.01c-.1-.24-.3-.42-.56-.55v-.01c-.1-.24-.3-.41-.56-.55v-.01c-.1-.24-.3-.42-.56-.55l-.01-.01c-.1-.24-.3-.42-.56-.55l-.01-.02c-.09-.24-.3-.42-.56-.55l-.01-.02c-.09-.24-.3-.42-.56-.55l-.02-.03c-.08-.24-.29-.41-.55-.54l-.03-.03c-.08-.24-.29-.42-.55-.55l-.03-.03c-.08-.24-.29-.42-.55-.55l-.03-.03c-.09-.24-.3-.42-.56-.55 0-.02-.02-.03-.03-.04-.08-.24-.29-.42-.55-.55l-.03-.04c-.09-.24-.3-.42-.56-.55l-.04-.04c-.08-.24-.3-.42-.56-.55l-.03-.04c-.09-.24-.3-.42-.56-.56l-.04-.04c-.09-.24-.3-.42-.56-.55a1.44 1.44 0 01-.04-.05c-.09-.24-.3-.42-.56-.56l-.05-.04c-.12-.36-.5-.58-.95-.72a4.43 4.43 0 00-1.97-.44z" transform="matrix(.26458 0 0 .26458 37.17 207.02)" opacity=".18" fill="url(#b)"/><g opacity=".97"><g transform="matrix(.09045 0 0 .09045 27.05 217.32)"><g transform="translate(200.93 -25.18)"><path d="M67.68 8.3c-2.16 0-18.74.43 2.74 14.27l1.26 43.21-49.37 57.68s-20.73 22 5.3 21.82l53.26-.17h14.51l53.25.17c26.04.18 5.3-21.82 5.3-21.82l-49.36-57.68 1.26-43.2C128.74 7.8 108.34 8.3 108.34 8.3l-12.43.04v-.01H80.3l-12.4-.03h-.23z" fill="#90caf9"/><path d="M70.08 83.38l-33.05 37.54s-16.24 16.75 4.16 16.61l41.7-.12h11.38l41.71.12c20.4.14 4.16-16.61 4.16-16.61l-33.05-37.54z" fill="#f50057"/><circle cx="102.8" cy="112.81" r="11.03" fill="#e3f2fd" fill-opacity=".81"/><circle cx="75.41" cy="100.32" r="6.1" fill="#e3f2fd" fill-opacity=".81"/><circle cx="82.57" cy="42.25" r="5.32" fill="#e3f2fd" fill-opacity=".81"/><circle cx="92.54" cy="72.54" r="6" fill="#e3f2fd" fill-opacity=".81"/><rect width="61.36" height="15.1" x="56.92" y="7.7" ry="10.25" fill="#90caf9"/></g><rect ry="1.26" rx="0" y="-2.61" x="271.69" height="6.02" width="34.84" fill="#6bb8f7" fill-opacity=".78"/></g><g transform="matrix(.09045 0 0 .09045 91.75 227.12)"><rect rx="12.68" y="11.28" x="-435.73" height="22.6" width="133.8" fill="#68362b"/><rect rx="10" y="39.03" x="-435.32" height="28.96" width="130.88" fill="#e07d00"/><path d="M-432.34 32c-2.32-.17-3.99.65-5.69 2.16-2.7 2.96-2.22 7.31-2.03 11.1.74 1.94 1.1 4.34 1.9 6.09 2.35 1.1 5.66.38 8.25-.4 2.4-1.3 5.53-1.67 7.72-3.12 1.83-1.72 4.98-2.01 7.6-2.17 2-.65 2.28 2.03 2.95 3.12.55 2.18 1.12 4.85 3.25 5.82 2.76.04 5.94-.65 7.18-3.39 1.29-2.43 3.12-4.8 5.95-5.14 2.87-.73 6.42-.66 8.94 1.08 2.62 1.56 4.63 2.19 6.76 4.33 3.31 2.65 7.73 2.29 11.78 2.44 1.78.18 5.08.45 5.68-1.49 1.05-2.61 1.4-5.36 2.57-7.85 1.26-1.66 4.33-2.63 5.9-1.9 1.31.81 1.82 2.22 2.23 3.8.23 1.98-.58 3.86-1.09 5.27-1.67 3.3 2.23 2.67 4.06 1.36 3-1.38 3.11-5.27 5.69-7.04 2.82-2.96 6.18.43 6.22 3.79 1.31 1.3 1.17 3.78 3.12 3.65 3.71-.29 7.87-2.83 10.15-6.09 1.14-1.43 1.7-5.15 4.2-5.95 3.13.8 3.47 3.42 5.14 5.55 1.32 2.52 2.89 5.88 6.22 5.68 3.42.84 7.82.08 9.2-3.65 1.36-2.83 2.44-5.25 2.44-8.42a7.26 7.26 0 00-3.65-6.74c-2.31-2.24-6.03-.74-9.13-1.09-10.89.15-21.73-.42-32.62-.27h-19.16c-4.33-.7-8.86.04-13.26-.4-7.46-.28-14.9-.84-22.38-.68h-34.06" fill="#8bc34a"/><path d="M-310.45 12.24c-.38 1.34.42 4-1.5 3.65-2.17-.65-4.36-.75-6.63-1.08-3.36.1-6.79-.43-9.88.95-3.78.92-7.45 2.29-11.1 3.79-2.26 1.28-4.76 2.53-6.09 4.87-.8.95-1.78 2.23-2.03 3.38-1 .89-3.61-1.86-5.54-2.03-4.03-.96-7.77-2.63-11.78-3.38-3.04-.89-6.07-1.62-8.8-2.3a62.14 62.14 0 00-9.88-2.84c-3-.64-5.96-1.36-9.07-1.22-2.4-.41-5.22-.44-7.8-.68-10.26-.3-20.6-.06-30.9-.13a8.18 8.18 0 011.08-3.12c.23-1.35.96-1.93 2.47-1.62 3.55.14 7.08.54 10.75.4h38.61c4.1.32 8.32 0 12.43.28 5.64-.09 11.36.17 16.95-.14 5.37-.51 10.95-.17 16.43-.27 7.33.06 14.76-.14 22 .13-.01-.03.78.24.95.14" fill="#ffeb3b"/><path fill="#ff3d00" d="M-437.28-5.03h132.51v18.41h-132.51z"/><path d="M-429.9-6.85c.37 1.34-.43 4 1.48 3.65 2.18-.65 4.36-.75 6.63-1.08 3.37.1 6.8-.43 9.88.95 3.79.91 7.46 2.29 11.1 3.79 2.27 1.28 4.76 2.53 6.1 4.87.8.95 1.78 2.23 2.02 3.38 1 .89 3.62-1.86 5.55-2.03 4.03-.96 7.76-2.63 11.78-3.38 3.04-.89 6.07-1.62 8.8-2.3a62.14 62.14 0 019.88-2.85c3-.63 5.96-1.35 9.07-1.21 2.39-.41 5.22-.44 7.8-.68 10.26-.3 20.6-.06 30.9-.14a8.18 8.18 0 00-1.08-3.1c-.23-1.36-.96-1.94-2.47-1.63-3.56.14-7.08.54-10.75.4h-38.62c-4.1.32-8.3 0-12.42.27-5.64-.08-11.36.18-16.95-.13-5.38-.51-10.96-.17-16.43-.27-7.33.06-14.77-.14-22 .13.01-.03-.78.24-.95.14" fill="#ffeb3b"/><rect rx="12.89" y="-30.81" x="-439.25" height="23.14" width="136.03" fill="#68362b"/><path d="M-308.76-35c1.48 1.27 2.57 1.55 4.2 2.84 1.57.96 2.1 2.47 2.16 4.33.27 2.74.47 5.93-1.62 7.71-1.36 2.16-4.63 1.35-7.04 1.5-2.38-.4-4.87-.63-7.04-1.63a17.24 17.24 0 01-5.41-2.71 11.9 11.9 0 00-5.6-1.08c-1.92-.05-2.96 2.2-3.84 3.4-.75 2.11-2.92 2.69-4.9 1.74-3.85-.7-4.58-4.61-6.37-7.44-1.48-1.86-4.4-1.03-6.63-1.22a10.52 10.52 0 00-8.26 4.6 12.61 12.61 0 01-7.98 5.68c-4.62 1.14-9.64-.8-12.91-4.15-2.03-2.65-1.54-6.97-4.69-8.84-2.53-.78-4 2.43-5.14 4.2-1.16 2.15-1.5 5.54-4.06 6.36a12.1 12.1 0 01-6.55.41c-1.82-.82-3.16-3.32-4.69-5.01-.96-1.96-3.8-4.9-5.68-2.44-2.78 2.87-4.56 6.95-7.99 9.07-2.8.66-5.82.93-8.8 1.22a48.6 48.6 0 01-9-.57c-1.97-.96-2.93-4.06-1.28-5.66.85-1.76 3.32-2.82 3.92-4.06.3-1.86-1.48-2.44-3.11-2.84-1.08-.63-4.2-.02-3.79-1.36.5-.79 1.37-1.04 1.84-1.63 1.24-.98 2.27-1.17 3.71-1.88 4-1.18 7.3-4.04 11.1-5.69 3.83-2.27 8.26-2.64 12.59-2.98 5.97.13 11.99-.27 17.93.26 4.92.57 9.79 1.41 14.68 2.14 3.68.5 8.09.9 11.33 1.26 5.7.41 11.22 1.68 16.83 2.43 4.52.17 8.88 1.05 13.45.95 3.18.04 6.34.02 9.48-.4 1.04-.48 4.3-.71 6.32-.95 2.6-.02 5.41 0 7.56.81 1.76.2 3.65.41 4.46 1.55.03-.36.4 1.03.82.07z" fill="#8bc34a"/><path d="M-371.11-76.56a64.02 36.2 0 00-64.02 36.2 64.02 36.2 0 00.76 5.35h126.5a64.02 36.2 0 00.78-5.34 64.02 36.2 0 00-64.02-36.2z" fill="#e07d00"/><ellipse ry="4.53" rx="4.6" cy="-57.2" cx="-344.23" fill="#ffd303"/><ellipse ry="4.53" rx="4.6" cy="-49.29" cx="-357.9" fill="#ffd303"/><ellipse ry="4.53" rx="4.6" cy="-44.1" cx="-342.38" fill="#ffd303"/></g><g transform="translate(50.74 219.52) scale(.11382)"><path d="M-40.49 5.97c-2.77 0-5 2.18-5 4.89 0 2.59 2.04 4.69 4.65 4.87v68.4c0 9.08 6.73 16.4 15.1 16.4 8.36 0 15.1-7.32 15.1-16.4V15.7a4.91 4.91 0 004.35-4.84c0-2.71-2.23-4.9-5-4.9z" fill="#90caf9"/><path d="M-36.55 34.9v47.34c0 7.68 4.85 13.86 10.87 13.86s10.87-6.18 10.87-13.86V34.91z" fill="#aeea00"/><rect ry="3.6" rx="0" y="15.73" x="-40.84" height="3.6" width="30.1" fill="#64b5f6" fill-opacity=".84"/><circle r="6.38" cy="81.01" cx="-28.2" fill="#e3f2fd" fill-opacity=".65"/><circle r="3.54" cy="60.75" cx="-21.9" fill="#e3f2fd" fill-opacity=".81"/><circle r="4.6" cy="36.77" cx="-29.12" fill="#e3f2fd" fill-opacity=".81"/></g></g></g></svg>
